<svg aria-hidden="true" style="position: absolute; width: 0; height: 0; overflow: hidden;" version="1.1" xmlns="http://www.w3.org/2000/svg" xmlns:xlink="http://www.w3.org/1999/xlink">
<defs>
<symbol id="bank" viewBox="0 0 32 32">
<title>bank</title>
<path d="M28.62 0h-25.239c-1.864 0-3.38 1.516-3.38 3.38v25.239c0 1.864 1.516 3.38 3.38 3.38h25.239c1.864 0 3.38-1.516 3.38-3.38v-25.239c0-1.864-1.516-3.38-3.38-3.38zM30.648 28.62c0 1.118-0.91 2.028-2.028 2.028h-25.239c-1.118 0-2.028-0.91-2.028-2.028v-25.239c0-1.118 0.91-2.028 2.028-2.028h25.239c1.118 0 2.028 0.91 2.028 2.028v25.239z"></path>
<path d="M26.817 4.507h-20.732c-0.373 0-0.676 0.303-0.676 0.676v2.028h-2.028c-0.373 0-0.676 0.303-0.676 0.676v5.408c0 0.373 0.303 0.676 0.676 0.676h2.028v4.056h-2.028c-0.373 0-0.676 0.303-0.676 0.676v5.408c0 0.373 0.303 0.676 0.676 0.676h2.028v2.028c0 0.373 0.303 0.676 0.676 0.676h20.732c0.373 0 0.676-0.303 0.676-0.676v-21.634c0-0.373-0.303-0.676-0.676-0.676zM5.408 23.437h-1.352v-4.056h1.352v4.056zM5.408 12.62h-1.352v-4.056h1.352v4.056zM26.141 26.141h-19.38v-20.282h19.38v20.282z"></path>
<path d="M17.577 11.772v-1.181c0-0.373-0.303-0.676-0.676-0.676s-0.676 0.303-0.676 0.676v1.181c-2.041 0.325-3.606 2.097-3.606 4.228 0 2.361 1.921 4.282 4.282 4.282s4.282-1.921 4.282-4.282c0-2.131-1.565-3.903-3.606-4.228zM16.901 18.93c-1.615 0-2.93-1.314-2.93-2.93s1.314-2.93 2.93-2.93c1.615 0 2.93 1.314 2.93 2.93s-1.314 2.93-2.93 2.93z"></path>
<path d="M17.379 15.522c-0.157-0.158-0.39-0.23-0.61-0.185-0.042 0.008-0.086 0.022-0.126 0.038-0.085 0.036-0.158 0.085-0.219 0.147l-0 0c-0.122 0.122-0.198 0.291-0.198 0.478v0c0 0.178 0.072 0.352 0.198 0.478 0.031 0.031 0.064 0.059 0.101 0.083l0.002 0.002c0.036 0.024 0.076 0.045 0.116 0.061s0.084 0.031 0.126 0.039c0.044 0.009 0.088 0.014 0.133 0.014 0.178 0 0.352-0.072 0.478-0.198 0.061-0.061 0.111-0.134 0.145-0.215l0.002-0.004c0.016-0.041 0.030-0.084 0.038-0.127 0.009-0.043 0.014-0.087 0.014-0.132-0-0.187-0.076-0.355-0.198-0.478v0z"></path>
</symbol>
<symbol id="cart" viewBox="0 0 32 32">
<title>cart</title>
<path d="M30.685 6.675h-25.020l-0.372-4.143c-0.061-0.678-0.629-1.197-1.309-1.197h-2.67c-0.726 0-1.314 0.588-1.314 1.314s0.588 1.314 1.314 1.314h1.469c0.803 8.942-1.272-14.169 1.511 16.84 0.107 1.214 0.763 2.531 1.893 3.426-2.037 2.601-0.176 6.436 3.137 6.436 2.75 0 4.689-2.743 3.746-5.34h7.193c-0.942 2.594 0.994 5.34 3.746 5.34 2.197 0 3.984-1.787 3.984-3.984s-1.787-3.984-3.984-3.984h-14.677c-0.998 0-1.868-0.602-2.244-1.48l21.002-1.234c0.58-0.035 1.057-0.442 1.196-0.984l0.002-0.009 2.67-10.681c0.207-0.828-0.42-1.633-1.275-1.633zM9.324 28.036c-0.748 0-1.356-0.608-1.356-1.356s0.608-1.356 1.356-1.356c0.748 0 1.356 0.608 1.356 1.356s-0.608 1.356-1.356 1.356zM24.010 28.036c-0.748 0-1.356-0.608-1.356-1.356s0.608-1.356 1.356-1.356 1.356 0.608 1.356 1.356-0.608 1.356-1.356 1.356zM26.974 17.415l-20.238 1.189-0.835-9.3h23.101z"></path>
</symbol>
<symbol id="clock" viewBox="0 0 32 32">
<title>clock</title>
<path d="M27.314 4.686c-3.022-3.022-7.040-4.686-11.314-4.686s-8.292 1.664-11.314 4.686c-3.022 3.022-4.686 7.040-4.686 11.314s1.664 8.292 4.686 11.314c3.022 3.022 7.040 4.686 11.314 4.686s8.292-1.664 11.314-4.686c3.022-3.022 4.686-7.040 4.686-11.314s-1.664-8.292-4.686-11.314zM16 29.5c-7.444 0-13.5-6.056-13.5-13.5s6.056-13.5 13.5-13.5 13.5 6.056 13.5 13.5-6.056 13.5-13.5 13.5z"></path>
<path d="M17.25 14.75v-10h-2.5v12.5h9.5v-2.5z"></path>
</symbol>
<symbol id="compass" viewBox="0 0 32 32">
<title>compass</title>
<path d="M17.333 5.401v-0.469c0.803-0.473 1.333-1.316 1.333-2.266 0-1.471-1.196-2.667-2.667-2.667s-2.667 1.196-2.667 2.667c0 0.95 0.53 1.793 1.333 2.266v0.469c-6.728 0.671-12 6.364-12 13.266 0 7.352 5.981 13.333 13.333 13.333s13.333-5.981 13.333-13.333c0-6.902-5.272-12.595-12-13.266zM16 1.333c0.735 0 1.333 0.598 1.333 1.333 0 0.298-0.107 0.575-0.283 0.802-0.11-0.079-0.237-0.136-0.383-0.136h-1.333c-0.146 0-0.274 0.056-0.383 0.136-0.176-0.227-0.283-0.505-0.283-0.802 0-0.735 0.598-1.333 1.333-1.333zM16 30.667c-6.617 0-12-5.383-12-12s5.383-12 12-12 12 5.383 12 12-5.383 12-12 12z"></path>
<path d="M21.642 12.104l-7.333 4.667c-0.082 0.054-0.15 0.122-0.201 0.203l-0.002 0.003-0.001-0.001-4.667 7.333c-0.065 0.101-0.104 0.225-0.104 0.358 0 0.368 0.299 0.667 0.667 0.667 0.133 0 0.257-0.039 0.361-0.106l-0.003 0.002 7.332-4.668c0.083-0.053 0.152-0.121 0.204-0.201l0.002-0.003 4.667-7.333c0.065-0.101 0.104-0.225 0.104-0.358 0-0.368-0.299-0.667-0.667-0.667-0.133 0-0.257 0.039-0.361 0.106l0.003-0.002zM12.173 22.494l2.61-4.101 1.491 1.491-4.101 2.61zM17.217 18.941l-1.491-1.491 4.101-2.61-2.61 4.101z"></path>
</symbol>
<symbol id="forward" viewBox="0 0 32 32">
<title>fast-forward</title>
<path d="M31.761 15.541l-15.158-10.667c-0.090-0.064-0.202-0.103-0.323-0.103-0.31 0-0.561 0.251-0.561 0.561 0 0 0 0 0 0v-0 9.98l-14.835-10.433c-0.090-0.064-0.202-0.102-0.322-0.102-0.31 0-0.562 0.251-0.562 0.561v21.319c0.001 0.31 0.252 0.561 0.561 0.561h0c0.113 0 0.226-0.035 0.323-0.102l14.835-10.432v9.98c0 0.31 0.251 0.561 0.561 0.561h0c0.121-0 0.233-0.039 0.325-0.104l-0.002 0.001 15.158-10.667c0.145-0.102 0.239-0.27 0.239-0.459s-0.094-0.356-0.238-0.457l-0.002-0.001zM1.123 25.579v-19.157l13.621 9.578-13.621 9.579zM16.842 25.585v-19.17l13.621 9.585-13.621 9.585z"></path>
</symbol>
<symbol id="globe" viewBox="0 0 32 32">
<title>globe</title>
<path d="M16 0c-8.822 0-16 7.178-16 16s7.178 16 16 16 16-7.178 16-16-7.178-16-16-16zM15.063 7.854c-1.426-0.061-2.838-0.262-4.186-0.588 0.215-0.51 0.449-1 0.701-1.465 1.034-1.905 2.303-3.241 3.485-3.726zM15.063 9.73v5.332h-5.856c0.082-2.081 0.437-4.148 1.024-6.027 1.555 0.392 3.187 0.629 4.832 0.694zM15.063 16.938v5.332c-1.645 0.066-3.277 0.303-4.832 0.694-0.587-1.879-0.941-3.946-1.024-6.027zM15.063 24.146v5.778c-1.183-0.484-2.452-1.821-3.485-3.726-0.252-0.464-0.486-0.954-0.701-1.465 1.348-0.326 2.76-0.526 4.186-0.588zM16.938 24.146c1.426 0.061 2.838 0.262 4.186 0.588-0.215 0.51-0.449 1-0.701 1.465-1.034 1.905-2.303 3.241-3.485 3.726zM16.938 22.27v-5.332h5.856c-0.082 2.081-0.437 4.148-1.024 6.027-1.555-0.392-3.187-0.629-4.832-0.694zM16.938 15.063v-5.332c1.645-0.066 3.277-0.303 4.832-0.694 0.587 1.879 0.941 3.946 1.024 6.027zM16.938 7.854v-5.778c1.183 0.484 2.452 1.821 3.485 3.726 0.252 0.464 0.486 0.954 0.701 1.465-1.348 0.326-2.76 0.526-4.186 0.588zM22.071 4.907c-0.47-0.865-0.98-1.628-1.517-2.279 1.875 0.64 3.573 1.664 5 2.978-0.814 0.436-1.692 0.815-2.615 1.132-0.262-0.636-0.552-1.248-0.868-1.831zM9.929 4.907c-0.316 0.583-0.606 1.195-0.868 1.831-0.923-0.317-1.801-0.696-2.615-1.132 1.428-1.313 3.126-2.338 5-2.978-0.538 0.651-1.047 1.413-1.517 2.279zM8.427 8.5c-0.64 2.047-1.016 4.279-1.097 6.562h-5.423c0.201-3.047 1.371-5.834 3.206-8.052 1.018 0.584 2.133 1.084 3.314 1.49zM7.33 16.938c0.081 2.284 0.457 4.515 1.097 6.562-1.181 0.406-2.296 0.906-3.314 1.49-1.835-2.218-3.005-5.005-3.206-8.052zM9.061 25.262c0.262 0.636 0.552 1.248 0.868 1.831 0.47 0.865 0.979 1.628 1.517 2.279-1.875-0.64-3.572-1.664-5-2.978 0.814-0.436 1.692-0.815 2.615-1.132zM22.071 27.093c0.316-0.583 0.606-1.195 0.868-1.831 0.923 0.317 1.801 0.696 2.615 1.132-1.428 1.313-3.126 2.338-5 2.978 0.538-0.651 1.047-1.413 1.517-2.279zM23.573 23.5c0.64-2.047 1.016-4.279 1.097-6.562h5.423c-0.201 3.047-1.371 5.834-3.206 8.052-1.018-0.584-2.134-1.084-3.314-1.49zM24.67 15.063c-0.081-2.284-0.457-4.515-1.097-6.562 1.181-0.406 2.296-0.906 3.314-1.49 1.835 2.218 3.005 5.005 3.206 8.052z"></path>
</symbol>
<symbol id="heart" viewBox="0 0 32 32">
<title>heart</title>
<path d="M16 30.22c-0.456 0-0.895-0.165-1.237-0.465-1.293-1.13-2.539-2.193-3.639-3.13l-0.006-0.005c-3.224-2.747-6.008-5.12-7.945-7.457-2.165-2.613-3.174-5.090-3.174-7.796 0-2.629 0.902-5.055 2.539-6.831 1.657-1.797 3.929-2.786 6.401-2.786 1.847 0 3.539 0.584 5.028 1.736 0.751 0.581 1.433 1.293 2.033 2.122 0.6-0.83 1.281-1.541 2.033-2.123 1.489-1.152 3.181-1.736 5.028-1.736 2.471 0 4.744 0.99 6.401 2.786 1.637 1.776 2.538 4.201 2.538 6.831 0 2.706-1.008 5.184-3.174 7.796-1.937 2.337-4.721 4.71-7.944 7.457-1.102 0.939-2.35 2.002-3.645 3.136-0.328 0.288-0.762 0.464-1.236 0.464-0 0-0 0-0.001 0h0zM8.939 3.624c-1.942 0-3.725 0.775-5.023 2.182-1.317 1.428-2.042 3.403-2.042 5.56 0 2.276 0.846 4.312 2.743 6.6 1.833 2.212 4.56 4.536 7.717 7.227l0.006 0.005c1.104 0.941 2.355 2.007 3.657 3.146 1.31-1.141 2.563-2.209 3.669-3.151 3.157-2.691 5.884-5.014 7.717-7.226 1.896-2.289 2.742-4.324 2.742-6.6 0-2.157-0.725-4.132-2.042-5.56-1.297-1.407-3.081-2.182-5.023-2.182-1.422 0-2.728 0.452-3.881 1.344-1.028 0.795-1.743 1.8-2.163 2.503-0.216 0.362-0.596 0.577-1.016 0.577s-0.801-0.216-1.016-0.577c-0.419-0.703-1.135-1.708-2.163-2.503-1.153-0.892-2.459-1.344-3.881-1.344z"></path>
</symbol>
<symbol id="mail" viewBox="0 0 32 32">
<title>mail</title>
<path d="M29.188 3.813h-26.375c-1.549 0-2.813 1.262-2.813 2.813v18.75c0 1.545 1.258 2.813 2.813 2.813h26.375c1.545 0 2.813-1.258 2.813-2.813v-18.75c0-1.545-1.258-2.813-2.813-2.813zM28.799 5.688l-12.739 12.74-12.85-12.74h25.589zM1.875 24.987v-17.982l9.030 8.953-9.030 9.030zM3.201 26.313l9.036-9.036 3.166 3.139c0.367 0.363 0.958 0.362 1.323-0.003l3.087-3.087 8.987 8.987h-25.598zM30.125 24.987l-8.987-8.987 8.987-8.987v17.973z"></path>
</symbol>
<symbol id="phone" viewBox="0 0 32 32">
<title>phone</title>
<path d="M29.432 21.004c-1.959 0-3.883-0.306-5.706-0.909-0.909-0.31-1.944-0.069-2.537 0.535l-3.598 2.716c-4.173-2.227-6.743-4.797-8.94-8.938l2.636-3.504c0.685-0.684 0.931-1.683 0.636-2.621-0.605-1.832-0.912-3.755-0.912-5.715 0-1.416-1.152-2.568-2.568-2.568h-5.877c-1.416 0-2.568 1.152-2.568 2.568 0 16.229 13.203 29.432 29.432 29.432 1.416 0 2.568-1.152 2.568-2.568v-5.86c-0-1.416-1.152-2.568-2.568-2.568zM30.222 29.432c0 0.436-0.354 0.79-0.79 0.79-15.249 0-27.654-12.405-27.654-27.654 0-0.436 0.354-0.79 0.79-0.79h5.877c0.436 0 0.79 0.354 0.79 0.79 0 2.15 0.338 4.26 0.998 6.26 0.092 0.295 0.017 0.601-0.281 0.912l-3.056 4.047c-0.112 0.147-0.18 0.334-0.18 0.536 0 0.147 0.036 0.285 0.099 0.407l-0.002-0.005c2.494 4.902 5.524 7.932 10.461 10.462 0.3 0.157 0.668 0.124 0.941-0.082l4.14-3.136c0.142-0.141 0.338-0.229 0.554-0.229 0.090 0 0.177 0.015 0.257 0.043l-0.006-0.002c2.013 0.665 4.123 1.002 6.273 1.002 0.436 0 0.79 0.354 0.79 0.79v5.86z"></path>
</symbol>
<symbol id="shuffle" viewBox="0 0 32 32">
<title>shuffle</title>
<path d="M31.64 23.231l-6-5c-0.298-0.25-0.714-0.3-1.064-0.138-0.343 0.164-0.576 0.508-0.576 0.906v3h-1.674c-1.388 0-2.656-0.704-3.392-1.88l-6.476-10.36c-1.47-2.354-4.006-3.76-6.784-3.76h-5.674v4h5.674c1.388 0 2.656 0.704 3.392 1.88l6.476 10.36c1.472 2.354 4.008 3.76 6.784 3.76h1.674v3c0 0.398 0.233 0.742 0.57 0.903l0.006 0.003c0.124 0.059 0.27 0.094 0.424 0.094h0c0.23 0 0.458-0.078 0.64-0.232l6-5c0.23-0.19 0.36-0.472 0.36-0.768s-0.13-0.578-0.36-0.768z"></path>
<path d="M31.64 7.231l-6-5c-0.298-0.248-0.714-0.3-1.064-0.136-0.352 0.162-0.576 0.516-0.576 0.904v3h-1.674c-2.778 0-5.314 1.406-6.784 3.76l-0.362 0.58 2.358 3.774 1.396-2.234c0.736-1.176 2.004-1.88 3.392-1.88h1.674v3c0 0.388 0.224 0.742 0.576 0.906 0.124 0.059 0.27 0.094 0.424 0.094h0c0.23 0 0.458-0.080 0.64-0.232l6-5c0.23-0.19 0.36-0.472 0.36-0.768s-0.13-0.578-0.36-0.768zM10.462 17.885l-1.394 2.234c-0.736 1.176-2.006 1.88-3.394 1.88h-5.674v4h5.674c2.776 0 5.312-1.406 6.784-3.76l0.362-0.58-2.358-3.774z"></path>
</symbol>
<symbol id="sun" viewBox="0 0 32 32">
<title>sun</title>
<path d="M31.062 15.063l-5.132 0c-0.192-2.048-1.005-3.918-2.249-5.419l3.632-3.632c0.366-0.366 0.366-0.96 0-1.326s-0.96-0.366-1.326 0l-3.632 3.632c-1.501-1.244-3.371-2.057-5.419-2.249v-5.132c0-0.518-0.42-0.938-0.938-0.938s-0.938 0.42-0.938 0.938v5.132c-2.048 0.192-3.918 1.005-5.419 2.249l-3.632-3.632c-0.366-0.366-0.96-0.366-1.326-0s-0.366 0.96 0 1.326l3.632 3.632c-1.244 1.501-2.057 3.371-2.249 5.419h-5.132c-0.518 0-0.938 0.42-0.938 0.937s0.42 0.938 0.937 0.938l5.132 0c0.192 2.048 1.005 3.918 2.249 5.418l-3.632 3.632c-0.366 0.366-0.366 0.96 0 1.326 0.169 0.17 0.403 0.275 0.662 0.275 0 0 0.001 0 0.001 0h-0c0.24 0 0.48-0.092 0.663-0.275l3.632-3.632c1.501 1.244 3.371 2.057 5.419 2.249v5.132c0 0.518 0.42 0.937 0.938 0.937s0.938-0.42 0.938-0.938v-5.132c2.048-0.192 3.918-1.005 5.419-2.249l3.632 3.632c0.169 0.17 0.403 0.275 0.662 0.275 0 0 0.001 0 0.001 0h-0c0.24 0 0.48-0.092 0.663-0.275 0.366-0.366 0.366-0.96 0-1.326l-3.632-3.632c1.244-1.501 2.057-3.371 2.249-5.419l5.132-0c0.518 0 0.937-0.42 0.937-0.938s-0.42-0.937-0.938-0.937zM24.1 16.002c-0.001 4.465-3.634 8.098-8.1 8.098s-8.1-3.634-8.1-8.1c0-4.466 3.634-8.1 8.1-8.1s8.099 3.633 8.1 8.098l-0 0.002 0 0.002z"></path>
</symbol>
</defs>
</svg>
