<svg aria-hidden="true" style="position:absolute;width:0;height:0" xmlns="http://www.w3.org/2000/svg" overflow="hidden"><defs><symbol id="bank" viewBox="0 0 32 32"><path d="M28.62 0H3.381a3.383 3.383 0 00-3.38 3.38v25.239a3.383 3.383 0 003.38 3.38H28.62a3.383 3.383 0 003.38-3.38V3.38A3.383 3.383 0 0028.62 0zm2.028 28.62a2.03 2.03 0 01-2.028 2.028H3.381a2.03 2.03 0 01-2.028-2.028V3.381a2.03 2.03 0 012.028-2.028H28.62a2.03 2.03 0 012.028 2.028V28.62z"/><path d="M26.817 4.507H6.085a.676.676 0 00-.676.676v2.028H3.381a.676.676 0 00-.676.676v5.408c0 .373.303.676.676.676h2.028v4.056H3.381a.676.676 0 00-.676.676v5.408c0 .373.303.676.676.676h2.028v2.028c0 .373.303.676.676.676h20.732a.676.676 0 00.676-.676V5.181a.676.676 0 00-.676-.676zM5.408 23.437H4.056v-4.056h1.352v4.056zm0-10.817H4.056V8.564h1.352v4.056zm20.733 13.521H6.761V5.859h19.38v20.282z"/><path d="M17.577 11.772v-1.181a.676.676 0 00-1.352 0v1.181A4.288 4.288 0 0012.619 16c0 2.361 1.921 4.282 4.282 4.282s4.282-1.921 4.282-4.282a4.288 4.288 0 00-3.606-4.228zm-.676 7.158c-1.615 0-2.93-1.314-2.93-2.93s1.314-2.93 2.93-2.93c1.615 0 2.93 1.314 2.93 2.93s-1.314 2.93-2.93 2.93z"/><path d="M17.379 15.522a.677.677 0 00-.955 0 .68.68 0 00.101 1.039l.002.002a.706.706 0 00.375.114.68.68 0 00.623-.413l.002-.004a.713.713 0 00.052-.259.676.676 0 00-.198-.478z"/></symbol><symbol id="cart" viewBox="0 0 32 32"><path d="M30.685 6.675H5.665l-.372-4.143a1.314 1.314 0 00-1.309-1.197h-2.67a1.314 1.314 0 100 2.628h1.469l1.511 16.84c.107 1.214.763 2.531 1.893 3.426-2.037 2.601-.176 6.436 3.137 6.436 2.75 0 4.689-2.743 3.746-5.34h7.193c-.942 2.594.994 5.34 3.746 5.34 2.197 0 3.984-1.787 3.984-3.984s-1.787-3.984-3.984-3.984H9.332a2.441 2.441 0 01-2.244-1.48l21.002-1.234a1.316 1.316 0 001.196-.984l.002-.009 2.67-10.681a1.315 1.315 0 00-1.275-1.633zM9.324 28.036a1.357 1.357 0 010-2.712 1.357 1.357 0 010 2.712zm14.686 0a1.357 1.357 0 010-2.712 1.357 1.357 0 010 2.712zm2.964-10.621L6.736 18.604l-.835-9.3h23.101z"/></symbol><symbol id="clock" viewBox="0 0 32 32"><path d="M27.314 4.686C24.292 1.664 20.274 0 16 0S7.708 1.664 4.686 4.686C1.664 7.708 0 11.726 0 16s1.664 8.292 4.686 11.314C7.708 30.336 11.726 32 16 32s8.292-1.664 11.314-4.686C30.336 24.292 32 20.274 32 16s-1.664-8.292-4.686-11.314zM16 29.5C8.556 29.5 2.5 23.444 2.5 16S8.556 2.5 16 2.5 29.5 8.556 29.5 16 23.444 29.5 16 29.5z"/><path d="M17.25 14.75v-10h-2.5v12.5h9.5v-2.5z"/></symbol><symbol id="compass" viewBox="0 0 32 32"><path d="M17.333 5.401v-.469c.803-.473 1.333-1.316 1.333-2.266 0-1.471-1.196-2.667-2.667-2.667s-2.667 1.196-2.667 2.667c0 .95.53 1.793 1.333 2.266v.469c-6.728.671-12 6.364-12 13.266C2.665 26.019 8.646 32 15.998 32s13.333-5.981 13.333-13.333c0-6.902-5.272-12.595-12-13.266zM16 1.333c.735 0 1.333.598 1.333 1.333 0 .298-.107.575-.283.802a.653.653 0 00-.383-.136h-1.333a.644.644 0 00-.383.136 1.31 1.31 0 01-.283-.802c0-.735.598-1.333 1.333-1.333zm0 29.334c-6.617 0-12-5.383-12-12s5.383-12 12-12 12 5.383 12 12-5.383 12-12 12z"/><path d="M21.642 12.104l-7.333 4.667a.67.67 0 00-.201.203l-.002.003-.001-.001-4.667 7.333a.667.667 0 00.924.919l-.003.002 7.332-4.668a.675.675 0 00.204-.201l.002-.003 4.667-7.333a.667.667 0 00-.924-.919l.003-.002zm-9.469 10.39l2.61-4.101 1.491 1.491-4.101 2.61zm5.044-3.553l-1.491-1.491 4.101-2.61-2.61 4.101z"/></symbol><symbol id="forward" viewBox="0 0 32 32"><path d="M31.761 15.541L16.603 4.874a.56.56 0 00-.884.458v9.98L.884 4.879A.562.562 0 000 5.338v21.319c.001.31.252.561.561.561a.57.57 0 00.323-.102l14.835-10.432v9.98a.562.562 0 00.886.457l-.002.001 15.158-10.667a.56.56 0 00.001-.916l-.002-.001zM1.123 25.579V6.422L14.744 16 1.123 25.579zm15.719.006V6.415L30.463 16l-13.621 9.585z"/></symbol><symbol id="globe" viewBox="0 0 32 32"><path d="M16 0C7.178 0 0 7.178 0 16s7.178 16 16 16 16-7.178 16-16S24.822 0 16 0zm-.937 7.854a21.846 21.846 0 01-4.186-.588c.215-.51.449-1 .701-1.465 1.034-1.905 2.303-3.241 3.485-3.726zm0 1.876v5.332H9.207a23.525 23.525 0 011.024-6.027 23.67 23.67 0 004.832.694zm0 7.208v5.332a23.809 23.809 0 00-4.832.694 23.568 23.568 0 01-1.024-6.027zm0 7.208v5.778c-1.183-.484-2.452-1.821-3.485-3.726a16.392 16.392 0 01-.701-1.465 21.925 21.925 0 014.186-.588zm1.875 0c1.426.061 2.838.262 4.186.588-.215.51-.449 1-.701 1.465-1.034 1.905-2.303 3.241-3.485 3.726zm0-1.876v-5.332h5.856a23.525 23.525 0 01-1.024 6.027 23.67 23.67 0 00-4.832-.694zm0-7.207V9.731a23.809 23.809 0 004.832-.694 23.568 23.568 0 011.024 6.027zm0-7.209V2.076c1.183.484 2.452 1.821 3.485 3.726.252.464.486.954.701 1.465-1.348.326-2.76.526-4.186.588zm5.133-2.947a14.34 14.34 0 00-1.517-2.279 14.118 14.118 0 015 2.978c-.814.436-1.692.815-2.615 1.132a19.154 19.154 0 00-.868-1.831zm-12.142 0a19.154 19.154 0 00-.868 1.831 17.772 17.772 0 01-2.615-1.132 14.15 14.15 0 015-2.978 14.228 14.228 0 00-1.517 2.279zM8.427 8.5a25.1 25.1 0 00-1.097 6.562H1.907A14.06 14.06 0 015.113 7.01 19.24 19.24 0 008.427 8.5zM7.33 16.938A25.094 25.094 0 008.427 23.5a19.24 19.24 0 00-3.314 1.49 14.06 14.06 0 01-3.206-8.052zm1.731 8.324c.262.636.552 1.248.868 1.831.47.865.979 1.628 1.517 2.279a14.127 14.127 0 01-5-2.978 17.772 17.772 0 012.615-1.132zm13.01 1.831c.316-.583.606-1.195.868-1.831.923.317 1.801.696 2.615 1.132a14.15 14.15 0 01-5 2.978 14.228 14.228 0 001.517-2.279zm1.502-3.593a25.1 25.1 0 001.097-6.562h5.423a14.06 14.06 0 01-3.206 8.052 19.275 19.275 0 00-3.314-1.49zm1.097-8.437a25.094 25.094 0 00-1.097-6.562 19.24 19.24 0 003.314-1.49 14.06 14.06 0 013.206 8.052z"/></symbol><symbol id="heart" viewBox="0 0 32 32"><path d="M16 30.22c-.456 0-.895-.165-1.237-.465a374.562 374.562 0 00-3.639-3.13l-.006-.005c-3.224-2.747-6.008-5.12-7.945-7.457-2.165-2.613-3.174-5.09-3.174-7.796 0-2.629.902-5.055 2.539-6.831C4.195 2.739 6.467 1.75 8.939 1.75c1.847 0 3.539.584 5.028 1.736A10.308 10.308 0 0116 5.608c.6-.83 1.281-1.541 2.033-2.123 1.489-1.152 3.181-1.736 5.028-1.736 2.471 0 4.744.99 6.401 2.786C31.099 6.311 32 8.736 32 11.366c0 2.706-1.008 5.184-3.174 7.796-1.937 2.337-4.721 4.71-7.944 7.457-1.102.939-2.35 2.002-3.645 3.136a1.87 1.87 0 01-1.236.464H16zM8.939 3.624c-1.942 0-3.725.775-5.023 2.182-1.317 1.428-2.042 3.403-2.042 5.56 0 2.276.846 4.312 2.743 6.6 1.833 2.212 4.56 4.536 7.717 7.227l.006.005c1.104.941 2.355 2.007 3.657 3.146a430.966 430.966 0 013.669-3.151c3.157-2.691 5.884-5.014 7.717-7.226 1.896-2.289 2.742-4.324 2.742-6.6 0-2.157-.725-4.132-2.042-5.56-1.297-1.407-3.081-2.182-5.023-2.182-1.422 0-2.728.452-3.881 1.344-1.028.795-1.743 1.8-2.163 2.503-.216.362-.596.577-1.016.577s-.801-.216-1.016-.577c-.419-.703-1.135-1.708-2.163-2.503-1.153-.892-2.459-1.344-3.881-1.344z"/></symbol><symbol id="mail" viewBox="0 0 32 32"><path d="M29.188 3.813H2.813A2.818 2.818 0 000 6.626v18.75a2.818 2.818 0 002.813 2.813h26.375a2.818 2.818 0 002.813-2.813V6.626a2.818 2.818 0 00-2.813-2.813zm-.389 1.875L16.06 18.428 3.21 5.688h25.589zM1.875 24.987V7.005l9.03 8.953-9.03 9.03zm1.326 1.326l9.036-9.036 3.166 3.139a.938.938 0 001.323-.003l3.087-3.087 8.987 8.987H3.202zm26.924-1.326L21.138 16l8.987-8.987v17.973z"/></symbol><symbol id="phone" viewBox="0 0 32 32"><path d="M29.432 21.004c-1.959 0-3.883-.306-5.706-.909-.909-.31-1.944-.069-2.537.535l-3.598 2.716c-4.173-2.227-6.743-4.797-8.94-8.938l2.636-3.504a2.585 2.585 0 00.636-2.621 18.192 18.192 0 01-.912-5.715A2.57 2.57 0 008.443 0H2.566A2.57 2.57 0 00-.002 2.568C-.002 18.797 13.201 32 29.43 32a2.57 2.57 0 002.568-2.568v-5.86a2.57 2.57 0 00-2.568-2.568zm.79 8.428a.79.79 0 01-.79.79c-15.249 0-27.654-12.405-27.654-27.654a.79.79 0 01.79-.79h5.877a.79.79 0 01.79.79c0 2.15.338 4.26.998 6.26.092.295.017.601-.281.912l-3.056 4.047a.884.884 0 00-.081.943l-.002-.005c2.494 4.902 5.524 7.932 10.461 10.462.3.157.668.124.941-.082l4.14-3.136a.785.785 0 01.811-.186l-.006-.002a19.959 19.959 0 006.273 1.002.79.79 0 01.79.79v5.86z"/></symbol><symbol id="shuffle" viewBox="0 0 32 32"><path d="M31.64 23.231l-6-5c-.298-.25-.714-.3-1.064-.138a1.004 1.004 0 00-.576.906v3h-1.674a3.98 3.98 0 01-3.392-1.88l-6.476-10.36a7.951 7.951 0 00-6.784-3.76H0v4h5.674a3.98 3.98 0 013.392 1.88l6.476 10.36a7.956 7.956 0 006.784 3.76H24v3a1 1 0 00.57.903l.006.003c.124.059.27.094.424.094.23 0 .458-.078.64-.232l6-5c.23-.19.36-.472.36-.768s-.13-.578-.36-.768z"/><path d="M31.64 7.231l-6-5a1.001 1.001 0 00-1.64.768v3h-1.674a7.951 7.951 0 00-6.784 3.76l-.362.58 2.358 3.774 1.396-2.234a3.98 3.98 0 013.392-1.88H24v3a1 1 0 001 1 1 1 0 00.64-.232l6-5c.23-.19.36-.472.36-.768s-.13-.578-.36-.768zM10.462 17.885l-1.394 2.234a3.984 3.984 0 01-3.394 1.88H0v4h5.674a7.956 7.956 0 006.784-3.76l.362-.58-2.358-3.774z"/></symbol><symbol id="sun" viewBox="0 0 32 32"><path d="M31.062 15.063H25.93a9.933 9.933 0 00-2.249-5.419l3.632-3.632a.938.938 0 00-1.326-1.326l-3.632 3.632a9.933 9.933 0 00-5.419-2.249V.937a.938.938 0 00-1.876 0v5.132a9.933 9.933 0 00-5.419 2.249L6.009 4.686a.938.938 0 00-1.326 1.326l3.632 3.632a9.933 9.933 0 00-2.249 5.419H.934a.938.938 0 00-.001 1.875h5.132a9.927 9.927 0 002.249 5.418l-3.632 3.632a.938.938 0 00.662 1.601h.001c.24 0 .48-.092.663-.275l3.632-3.632a9.933 9.933 0 005.419 2.249v5.132a.937.937 0 101.876-.001V25.93a9.933 9.933 0 005.419-2.249l3.632 3.632a.93.93 0 00.662.275h.001a.938.938 0 00.663-1.601l-3.632-3.632a9.933 9.933 0 002.249-5.419h5.132a.937.937 0 10-.001-1.875zm-6.962.939c-.001 4.465-3.634 8.098-8.1 8.098S7.9 20.466 7.9 16c0-4.466 3.634-8.1 8.1-8.1s8.099 3.633 8.1 8.098v.004z"/></symbol></defs></svg>